solid OpenSCAD_Model
  facet normal -1 0 0
    outer loop
      vertex 0 0 0
      vertex 0 0 10
      vertex 0 40 0
    endloop
  endfacet
  facet normal -1 0 0
    outer loop
      vertex 0 40 0
      vertex 0 0 10
      vertex 0 40 10
    endloop
  endfacet
  facet normal 0 -1 0
    outer loop
      vertex 3 0 3
      vertex 0 0 0
      vertex 59.6 0 0
    endloop
  endfacet
  facet normal 0 -1 0
    outer loop
      vertex 3 0 3
      vertex 3 0 10
      vertex 0 0 10
    endloop
  endfacet
  facet normal 0 -1 0
    outer loop
      vertex 43 0 3
      vertex 3 0 3
      vertex 59.6 0 0
    endloop
  endfacet
  facet normal 0 -1 0
    outer loop
      vertex 59.6 0 3
      vertex 56.6 0 3
      vertex 59.6 0 0
    endloop
  endfacet
  facet normal 0 -1 0
    outer loop
      vertex 56.6 0 3
      vertex 51 0 3
      vertex 59.6 0 0
    endloop
  endfacet
  facet normal 0 -1 0
    outer loop
      vertex 43 0 58
      vertex 43 0 3
      vertex 51 0 3
    endloop
  endfacet
  facet normal 0 -1 0
    outer loop
      vertex 51 0 3
      vertex 43 0 3
      vertex 59.6 0 0
    endloop
  endfacet
  facet normal 0 -1 0
    outer loop
      vertex 0 0 10
      vertex 0 0 0
      vertex 3 0 3
    endloop
  endfacet
  facet normal 0 -1 0
    outer loop
      vertex 43 0 58
      vertex 51 0 3
      vertex 51 0 58
    endloop
  endfacet
  facet normal 0 -1 0
    outer loop
      vertex 56.6 0 58
      vertex 59.6 0 3
      vertex 59.6 0 58
    endloop
  endfacet
  facet normal 0 -1 0
    outer loop
      vertex 56.6 0 58
      vertex 56.6 0 3
      vertex 59.6 0 3
    endloop
  endfacet
  facet normal 0 0 -1
    outer loop
      vertex 0 0 0
      vertex 0 40 0
      vertex 59.6 0 0
    endloop
  endfacet
  facet normal 0 0 -1
    outer loop
      vertex 59.6 0 0
      vertex 0 40 0
      vertex 59.6 40 0
    endloop
  endfacet
  facet normal 0 1 0
    outer loop
      vertex 43 40 3
      vertex 59.6 40 0
      vertex 3 40 3
    endloop
  endfacet
  facet normal 0 1 0
    outer loop
      vertex 0 40 0
      vertex 0 40 10
      vertex 3 40 3
    endloop
  endfacet
  facet normal 0 1 0
    outer loop
      vertex 0 40 0
      vertex 3 40 3
      vertex 59.6 40 0
    endloop
  endfacet
  facet normal 0 1 0
    outer loop
      vertex 51 40 3
      vertex 43 40 58
      vertex 51 40 58
    endloop
  endfacet
  facet normal 0 1 0
    outer loop
      vertex 51 40 3
      vertex 43 40 3
      vertex 43 40 58
    endloop
  endfacet
  facet normal 0 1 0
    outer loop
      vertex 59.6 40 0
      vertex 43 40 3
      vertex 51 40 3
    endloop
  endfacet
  facet normal 0 1 0
    outer loop
      vertex 56.6 40 58
      vertex 59.6 40 0
      vertex 56.6 40 3
    endloop
  endfacet
  facet normal 0 1 0
    outer loop
      vertex 59.6 40 0
      vertex 51 40 3
      vertex 56.6 40 3
    endloop
  endfacet
  facet normal 0 1 0
    outer loop
      vertex 59.6 40 3
      vertex 56.6 40 58
      vertex 59.6 40 58
    endloop
  endfacet
  facet normal 0 1 0
    outer loop
      vertex 59.6 40 0
      vertex 56.6 40 58
      vertex 59.6 40 3
    endloop
  endfacet
  facet normal 0 1 0
    outer loop
      vertex 3 40 3
      vertex 0 40 10
      vertex 3 40 10
    endloop
  endfacet
  facet normal 0 0 1
    outer loop
      vertex 0 40 10
      vertex 0 0 10
      vertex 3 0 10
    endloop
  endfacet
  facet normal 0 0 1
    outer loop
      vertex 3 40 10
      vertex 0 40 10
      vertex 3 0 10
    endloop
  endfacet
  facet normal 1 0 0
    outer loop
      vertex 3 0 10
      vertex 3 0 3
      vertex 3 40 3
    endloop
  endfacet
  facet normal 1 0 0
    outer loop
      vertex 3 40 10
      vertex 3 0 10
      vertex 3 40 3
    endloop
  endfacet
  facet normal 0 0 1
    outer loop
      vertex 3 40 3
      vertex 3 0 3
      vertex 43 0 3
    endloop
  endfacet
  facet normal 0 0 1
    outer loop
      vertex 43 40 3
      vertex 3 40 3
      vertex 43 0 3
    endloop
  endfacet
  facet normal -1 0 0
    outer loop
      vertex 43 0 3
      vertex 43 0 58
      vertex 43 40 3
    endloop
  endfacet
  facet normal -1 0 0
    outer loop
      vertex 43 40 3
      vertex 43 0 58
      vertex 43 40 58
    endloop
  endfacet
  facet normal 0 0 1
    outer loop
      vertex 43 40 58
      vertex 43 0 58
      vertex 51 0 58
    endloop
  endfacet
  facet normal 0 0 1
    outer loop
      vertex 51 40 58
      vertex 43 40 58
      vertex 51 0 58
    endloop
  endfacet
  facet normal 1 0 0
    outer loop
      vertex 51 0 58
      vertex 51 0 3
      vertex 51 40 3
    endloop
  endfacet
  facet normal 1 0 0
    outer loop
      vertex 51 40 58
      vertex 51 0 58
      vertex 51 40 3
    endloop
  endfacet
  facet normal 0 0 1
    outer loop
      vertex 51 40 3
      vertex 51 0 3
      vertex 56.6 0 3
    endloop
  endfacet
  facet normal 0 0 1
    outer loop
      vertex 56.6 40 3
      vertex 51 40 3
      vertex 56.6 0 3
    endloop
  endfacet
  facet normal -1 0 0
    outer loop
      vertex 56.6 0 3
      vertex 56.6 0 58
      vertex 56.6 40 3
    endloop
  endfacet
  facet normal -1 0 0
    outer loop
      vertex 56.6 40 3
      vertex 56.6 0 58
      vertex 56.6 40 58
    endloop
  endfacet
  facet normal 0 0 1
    outer loop
      vertex 56.6 40 58
      vertex 56.6 0 58
      vertex 59.6 0 58
    endloop
  endfacet
  facet normal 0 0 1
    outer loop
      vertex 59.6 40 58
      vertex 56.6 40 58
      vertex 59.6 0 58
    endloop
  endfacet
  facet normal 1 0 0
    outer loop
      vertex 59.6 0 58
      vertex 59.6 0 3
      vertex 59.6 17.5 3
    endloop
  endfacet
  facet normal 1 0 0
    outer loop
      vertex 59.6 22.5 20
      vertex 59.6 0 58
      vertex 59.6 17.5 20
    endloop
  endfacet
  facet normal 1 0 0
    outer loop
      vertex 59.6 17.5 20
      vertex 59.6 0 58
      vertex 59.6 17.5 3
    endloop
  endfacet
  facet normal 1 0 0
    outer loop
      vertex 59.6 40 3
      vertex 59.6 0 58
      vertex 59.6 22.5 20
    endloop
  endfacet
  facet normal 1 0 0
    outer loop
      vertex 59.6 40 3
      vertex 59.6 22.5 20
      vertex 59.6 22.5 3
    endloop
  endfacet
  facet normal 1 0 0
    outer loop
      vertex 59.6 40 58
      vertex 59.6 0 58
      vertex 59.6 40 3
    endloop
  endfacet
  facet normal 0 0 -1
    outer loop
      vertex 59.6 40 3
      vertex 59.6 22.5 3
      vertex 59.6 17.5 3
    endloop
  endfacet
  facet normal 0 0 -1
    outer loop
      vertex 59.6 40 3
      vertex 59.6 17.5 3
      vertex 59.6 0 3
    endloop
  endfacet
  facet normal 1 0 0
    outer loop
      vertex 59.6 0 3
      vertex 59.6 0 0
      vertex 59.6 40 0
    endloop
  endfacet
  facet normal 1 0 0
    outer loop
      vertex 59.6 40 3
      vertex 59.6 0 3
      vertex 59.6 40 0
    endloop
  endfacet
  facet normal -1 0 0
    outer loop
      vertex 59.6 22.5 3
      vertex 59.6 22.5 0
      vertex 59.6 17.5 3
    endloop
  endfacet
  facet normal -1 0 0
    outer loop
      vertex 59.6 17.5 3
      vertex 59.6 22.5 0
      vertex 59.6 17.5 0
    endloop
  endfacet
  facet normal 0 1 0
    outer loop
      vertex 59.6 22.5 0
      vertex 59.6 22.5 3
      vertex 199.6 22.5 0
    endloop
  endfacet
  facet normal 0 1 0
    outer loop
      vertex 64.6 22.5 15
      vertex 59.6 22.5 3
      vertex 59.6 22.5 20
    endloop
  endfacet
  facet normal 0 1 0
    outer loop
      vertex 94.6 22.5 15
      vertex 59.6 22.5 20
      vertex 199.6 22.5 20
    endloop
  endfacet
  facet normal 0 1 0
    outer loop
      vertex 64.6 22.5 5
      vertex 59.6 22.5 3
      vertex 64.6 22.5 15
    endloop
  endfacet
  facet normal 0 1 0
    outer loop
      vertex 74.6 22.5 15
      vertex 64.6 22.5 15
      vertex 59.6 22.5 20
    endloop
  endfacet
  facet normal 0 1 0
    outer loop
      vertex 199.6 22.5 0
      vertex 59.6 22.5 3
      vertex 64.6 22.5 5
    endloop
  endfacet
  facet normal 0 1 0
    outer loop
      vertex 199.6 22.5 0
      vertex 64.6 22.5 5
      vertex 74.6 22.5 5
    endloop
  endfacet
  facet normal 0 1 0
    outer loop
      vertex 79.6 22.5 5
      vertex 74.6 22.5 15
      vertex 79.6 22.5 15
    endloop
  endfacet
  facet normal 0 1 0
    outer loop
      vertex 79.6 22.5 15
      vertex 74.6 22.5 15
      vertex 59.6 22.5 20
    endloop
  endfacet
  facet normal 0 1 0
    outer loop
      vertex 89.6 22.5 15
      vertex 79.6 22.5 15
      vertex 59.6 22.5 20
    endloop
  endfacet
  facet normal 0 1 0
    outer loop
      vertex 199.6 22.5 0
      vertex 74.6 22.5 5
      vertex 79.6 22.5 5
    endloop
  endfacet
  facet normal 0 1 0
    outer loop
      vertex 199.6 22.5 0
      vertex 79.6 22.5 5
      vertex 89.6 22.5 5
    endloop
  endfacet
  facet normal 0 1 0
    outer loop
      vertex 94.6 22.5 5
      vertex 89.6 22.5 15
      vertex 94.6 22.5 15
    endloop
  endfacet
  facet normal 0 1 0
    outer loop
      vertex 89.6 22.5 15
      vertex 59.6 22.5 20
      vertex 94.6 22.5 15
    endloop
  endfacet
  facet normal 0 1 0
    outer loop
      vertex 104.6 22.5 15
      vertex 94.6 22.5 15
      vertex 199.6 22.5 20
    endloop
  endfacet
  facet normal 0 1 0
    outer loop
      vertex 199.6 22.5 0
      vertex 89.6 22.5 5
      vertex 94.6 22.5 5
    endloop
  endfacet
  facet normal 0 1 0
    outer loop
      vertex 199.6 22.5 0
      vertex 94.6 22.5 5
      vertex 104.6 22.5 5
    endloop
  endfacet
  facet normal 0 1 0
    outer loop
      vertex 109.6 22.5 5
      vertex 104.6 22.5 15
      vertex 109.6 22.5 15
    endloop
  endfacet
  facet normal 0 1 0
    outer loop
      vertex 109.6 22.5 15
      vertex 104.6 22.5 15
      vertex 199.6 22.5 20
    endloop
  endfacet
  facet normal 0 1 0
    outer loop
      vertex 119.6 22.5 15
      vertex 109.6 22.5 15
      vertex 199.6 22.5 20
    endloop
  endfacet
  facet normal 0 1 0
    outer loop
      vertex 199.6 22.5 0
      vertex 104.6 22.5 5
      vertex 109.6 22.5 5
    endloop
  endfacet
  facet normal 0 1 0
    outer loop
      vertex 199.6 22.5 0
      vertex 109.6 22.5 5
      vertex 119.6 22.5 5
    endloop
  endfacet
  facet normal 0 1 0
    outer loop
      vertex 194.6 22.5 5
      vertex 199.6 22.5 0
      vertex 184.6 22.5 5
    endloop
  endfacet
  facet normal 0 1 0
    outer loop
      vertex 124.6 22.5 5
      vertex 119.6 22.5 15
      vertex 124.6 22.5 15
    endloop
  endfacet
  facet normal 0 1 0
    outer loop
      vertex 124.6 22.5 15
      vertex 119.6 22.5 15
      vertex 199.6 22.5 20
    endloop
  endfacet
  facet normal 0 1 0
    outer loop
      vertex 134.6 22.5 15
      vertex 124.6 22.5 15
      vertex 199.6 22.5 20
    endloop
  endfacet
  facet normal 0 1 0
    outer loop
      vertex 199.6 22.5 0
      vertex 119.6 22.5 5
      vertex 124.6 22.5 5
    endloop
  endfacet
  facet normal 0 1 0
    outer loop
      vertex 184.6 22.5 5
      vertex 199.6 22.5 0
      vertex 179.6 22.5 5
    endloop
  endfacet
  facet normal 0 1 0
    outer loop
      vertex 199.6 22.5 0
      vertex 124.6 22.5 5
      vertex 134.6 22.5 5
    endloop
  endfacet
  facet normal 0 1 0
    outer loop
      vertex 179.6 22.5 5
      vertex 199.6 22.5 0
      vertex 169.6 22.5 5
    endloop
  endfacet
  facet normal 0 1 0
    outer loop
      vertex 139.6 22.5 5
      vertex 134.6 22.5 15
      vertex 139.6 22.5 15
    endloop
  endfacet
  facet normal 0 1 0
    outer loop
      vertex 139.6 22.5 15
      vertex 134.6 22.5 15
      vertex 199.6 22.5 20
    endloop
  endfacet
  facet normal 0 1 0
    outer loop
      vertex 149.6 22.5 15
      vertex 139.6 22.5 15
      vertex 199.6 22.5 20
    endloop
  endfacet
  facet normal 0 1 0
    outer loop
      vertex 199.6 22.5 0
      vertex 134.6 22.5 5
      vertex 139.6 22.5 5
    endloop
  endfacet
  facet normal 0 1 0
    outer loop
      vertex 169.6 22.5 5
      vertex 199.6 22.5 0
      vertex 164.6 22.5 5
    endloop
  endfacet
  facet normal 0 1 0
    outer loop
      vertex 199.6 22.5 0
      vertex 139.6 22.5 5
      vertex 149.6 22.5 5
    endloop
  endfacet
  facet normal 0 1 0
    outer loop
      vertex 199.6 22.5 0
      vertex 149.6 22.5 5
      vertex 154.6 22.5 5
    endloop
  endfacet
  facet normal 0 1 0
    outer loop
      vertex 154.6 22.5 5
      vertex 149.6 22.5 15
      vertex 154.6 22.5 15
    endloop
  endfacet
  facet normal 0 1 0
    outer loop
      vertex 154.6 22.5 15
      vertex 149.6 22.5 15
      vertex 199.6 22.5 20
    endloop
  endfacet
  facet normal 0 1 0
    outer loop
      vertex 164.6 22.5 15
      vertex 154.6 22.5 15
      vertex 199.6 22.5 20
    endloop
  endfacet
  facet normal 0 1 0
    outer loop
      vertex 164.6 22.5 5
      vertex 199.6 22.5 0
      vertex 154.6 22.5 5
    endloop
  endfacet
  facet normal 0 1 0
    outer loop
      vertex 169.6 22.5 5
      vertex 164.6 22.5 15
      vertex 169.6 22.5 15
    endloop
  endfacet
  facet normal 0 1 0
    outer loop
      vertex 169.6 22.5 15
      vertex 164.6 22.5 15
      vertex 199.6 22.5 20
    endloop
  endfacet
  facet normal 0 1 0
    outer loop
      vertex 179.6 22.5 15
      vertex 169.6 22.5 15
      vertex 199.6 22.5 20
    endloop
  endfacet
  facet normal 0 1 0
    outer loop
      vertex 184.6 22.5 5
      vertex 179.6 22.5 15
      vertex 184.6 22.5 15
    endloop
  endfacet
  facet normal 0 1 0
    outer loop
      vertex 184.6 22.5 15
      vertex 179.6 22.5 15
      vertex 199.6 22.5 20
    endloop
  endfacet
  facet normal 0 1 0
    outer loop
      vertex 194.6 22.5 15
      vertex 184.6 22.5 15
      vertex 199.6 22.5 20
    endloop
  endfacet
  facet normal 0 1 0
    outer loop
      vertex 199.6 22.5 0
      vertex 194.6 22.5 5
      vertex 199.6 22.5 20
    endloop
  endfacet
  facet normal 0 1 0
    outer loop
      vertex 194.6 22.5 5
      vertex 194.6 22.5 15
      vertex 199.6 22.5 20
    endloop
  endfacet
  facet normal 0 1 0
    outer loop
      vertex 89.6 22.5 15
      vertex 94.6 22.5 5
      vertex 89.6 22.5 5
    endloop
  endfacet
  facet normal 0 1 0
    outer loop
      vertex 119.6 22.5 15
      vertex 124.6 22.5 5
      vertex 119.6 22.5 5
    endloop
  endfacet
  facet normal 0 1 0
    outer loop
      vertex 149.6 22.5 15
      vertex 154.6 22.5 5
      vertex 149.6 22.5 5
    endloop
  endfacet
  facet normal 0 1 0
    outer loop
      vertex 179.6 22.5 15
      vertex 184.6 22.5 5
      vertex 179.6 22.5 5
    endloop
  endfacet
  facet normal 0 1 0
    outer loop
      vertex 164.6 22.5 15
      vertex 169.6 22.5 5
      vertex 164.6 22.5 5
    endloop
  endfacet
  facet normal 0 1 0
    outer loop
      vertex 134.6 22.5 15
      vertex 139.6 22.5 5
      vertex 134.6 22.5 5
    endloop
  endfacet
  facet normal 0 1 0
    outer loop
      vertex 104.6 22.5 15
      vertex 109.6 22.5 5
      vertex 104.6 22.5 5
    endloop
  endfacet
  facet normal 0 1 0
    outer loop
      vertex 74.6 22.5 15
      vertex 79.6 22.5 5
      vertex 74.6 22.5 5
    endloop
  endfacet
  facet normal 0 0 1
    outer loop
      vertex 59.6 22.5 20
      vertex 59.6 17.5 20
      vertex 199.6 17.5 20
    endloop
  endfacet
  facet normal 0 0 1
    outer loop
      vertex 199.6 22.5 20
      vertex 59.6 22.5 20
      vertex 199.6 17.5 20
    endloop
  endfacet
  facet normal 0 -1 0
    outer loop
      vertex 59.6 17.5 3
      vertex 59.6 17.5 0
      vertex 199.6 17.5 0
    endloop
  endfacet
  facet normal 0 -1 0
    outer loop
      vertex 79.6 17.5 5
      vertex 59.6 17.5 3
      vertex 199.6 17.5 0
    endloop
  endfacet
  facet normal 0 -1 0
    outer loop
      vertex 59.6 17.5 20
      vertex 59.6 17.5 3
      vertex 64.6 17.5 5
    endloop
  endfacet
  facet normal 0 -1 0
    outer loop
      vertex 59.6 17.5 20
      vertex 64.6 17.5 15
      vertex 199.6 17.5 20
    endloop
  endfacet
  facet normal 0 -1 0
    outer loop
      vertex 59.6 17.5 20
      vertex 64.6 17.5 5
      vertex 64.6 17.5 15
    endloop
  endfacet
  facet normal 0 -1 0
    outer loop
      vertex 64.6 17.5 15
      vertex 74.6 17.5 15
      vertex 199.6 17.5 20
    endloop
  endfacet
  facet normal 0 -1 0
    outer loop
      vertex 89.6 17.5 15
      vertex 89.6 17.5 5
      vertex 94.6 17.5 15
    endloop
  endfacet
  facet normal 0 -1 0
    outer loop
      vertex 64.6 17.5 5
      vertex 59.6 17.5 3
      vertex 74.6 17.5 5
    endloop
  endfacet
  facet normal 0 -1 0
    outer loop
      vertex 89.6 17.5 5
      vertex 79.6 17.5 5
      vertex 199.6 17.5 0
    endloop
  endfacet
  facet normal 0 -1 0
    outer loop
      vertex 74.6 17.5 15
      vertex 79.6 17.5 15
      vertex 199.6 17.5 20
    endloop
  endfacet
  facet normal 0 -1 0
    outer loop
      vertex 79.6 17.5 5
      vertex 74.6 17.5 5
      vertex 59.6 17.5 3
    endloop
  endfacet
  facet normal 0 -1 0
    outer loop
      vertex 79.6 17.5 15
      vertex 89.6 17.5 15
      vertex 199.6 17.5 20
    endloop
  endfacet
  facet normal 0 -1 0
    outer loop
      vertex 94.6 17.5 5
      vertex 89.6 17.5 5
      vertex 199.6 17.5 0
    endloop
  endfacet
  facet normal 0 -1 0
    outer loop
      vertex 154.6 17.5 15
      vertex 164.6 17.5 15
      vertex 199.6 17.5 20
    endloop
  endfacet
  facet normal 0 -1 0
    outer loop
      vertex 104.6 17.5 5
      vertex 94.6 17.5 5
      vertex 199.6 17.5 0
    endloop
  endfacet
  facet normal 0 -1 0
    outer loop
      vertex 89.6 17.5 15
      vertex 94.6 17.5 15
      vertex 199.6 17.5 20
    endloop
  endfacet
  facet normal 0 -1 0
    outer loop
      vertex 94.6 17.5 5
      vertex 94.6 17.5 15
      vertex 89.6 17.5 5
    endloop
  endfacet
  facet normal 0 -1 0
    outer loop
      vertex 94.6 17.5 15
      vertex 104.6 17.5 15
      vertex 199.6 17.5 20
    endloop
  endfacet
  facet normal 0 -1 0
    outer loop
      vertex 109.6 17.5 5
      vertex 104.6 17.5 5
      vertex 199.6 17.5 0
    endloop
  endfacet
  facet normal 0 -1 0
    outer loop
      vertex 119.6 17.5 15
      vertex 119.6 17.5 5
      vertex 124.6 17.5 15
    endloop
  endfacet
  facet normal 0 -1 0
    outer loop
      vertex 119.6 17.5 5
      vertex 109.6 17.5 5
      vertex 199.6 17.5 0
    endloop
  endfacet
  facet normal 0 -1 0
    outer loop
      vertex 104.6 17.5 15
      vertex 109.6 17.5 15
      vertex 199.6 17.5 20
    endloop
  endfacet
  facet normal 0 -1 0
    outer loop
      vertex 109.6 17.5 15
      vertex 119.6 17.5 15
      vertex 199.6 17.5 20
    endloop
  endfacet
  facet normal 0 -1 0
    outer loop
      vertex 124.6 17.5 5
      vertex 124.6 17.5 15
      vertex 119.6 17.5 5
    endloop
  endfacet
  facet normal 0 -1 0
    outer loop
      vertex 124.6 17.5 5
      vertex 119.6 17.5 5
      vertex 199.6 17.5 0
    endloop
  endfacet
  facet normal 0 -1 0
    outer loop
      vertex 134.6 17.5 15
      vertex 134.6 17.5 5
      vertex 139.6 17.5 15
    endloop
  endfacet
  facet normal 0 -1 0
    outer loop
      vertex 134.6 17.5 5
      vertex 124.6 17.5 5
      vertex 199.6 17.5 0
    endloop
  endfacet
  facet normal 0 -1 0
    outer loop
      vertex 119.6 17.5 15
      vertex 124.6 17.5 15
      vertex 199.6 17.5 20
    endloop
  endfacet
  facet normal 0 -1 0
    outer loop
      vertex 124.6 17.5 15
      vertex 134.6 17.5 15
      vertex 199.6 17.5 20
    endloop
  endfacet
  facet normal 0 -1 0
    outer loop
      vertex 139.6 17.5 5
      vertex 139.6 17.5 15
      vertex 134.6 17.5 5
    endloop
  endfacet
  facet normal 0 -1 0
    outer loop
      vertex 139.6 17.5 5
      vertex 134.6 17.5 5
      vertex 199.6 17.5 0
    endloop
  endfacet
  facet normal 0 -1 0
    outer loop
      vertex 169.6 17.5 15
      vertex 179.6 17.5 15
      vertex 199.6 17.5 20
    endloop
  endfacet
  facet normal 0 -1 0
    outer loop
      vertex 149.6 17.5 5
      vertex 139.6 17.5 5
      vertex 199.6 17.5 0
    endloop
  endfacet
  facet normal 0 -1 0
    outer loop
      vertex 134.6 17.5 15
      vertex 139.6 17.5 15
      vertex 199.6 17.5 20
    endloop
  endfacet
  facet normal 0 -1 0
    outer loop
      vertex 139.6 17.5 15
      vertex 149.6 17.5 15
      vertex 199.6 17.5 20
    endloop
  endfacet
  facet normal 0 -1 0
    outer loop
      vertex 154.6 17.5 5
      vertex 149.6 17.5 5
      vertex 199.6 17.5 0
    endloop
  endfacet
  facet normal 0 -1 0
    outer loop
      vertex 164.6 17.5 15
      vertex 164.6 17.5 5
      vertex 169.6 17.5 15
    endloop
  endfacet
  facet normal 0 -1 0
    outer loop
      vertex 164.6 17.5 5
      vertex 154.6 17.5 5
      vertex 199.6 17.5 0
    endloop
  endfacet
  facet normal 0 -1 0
    outer loop
      vertex 149.6 17.5 15
      vertex 154.6 17.5 15
      vertex 199.6 17.5 20
    endloop
  endfacet
  facet normal 0 -1 0
    outer loop
      vertex 169.6 17.5 5
      vertex 169.6 17.5 15
      vertex 164.6 17.5 5
    endloop
  endfacet
  facet normal 0 -1 0
    outer loop
      vertex 164.6 17.5 15
      vertex 169.6 17.5 15
      vertex 199.6 17.5 20
    endloop
  endfacet
  facet normal 0 -1 0
    outer loop
      vertex 109.6 17.5 5
      vertex 109.6 17.5 15
      vertex 104.6 17.5 5
    endloop
  endfacet
  facet normal 0 -1 0
    outer loop
      vertex 169.6 17.5 5
      vertex 164.6 17.5 5
      vertex 199.6 17.5 0
    endloop
  endfacet
  facet normal 0 -1 0
    outer loop
      vertex 179.6 17.5 15
      vertex 179.6 17.5 5
      vertex 184.6 17.5 15
    endloop
  endfacet
  facet normal 0 -1 0
    outer loop
      vertex 179.6 17.5 5
      vertex 169.6 17.5 5
      vertex 199.6 17.5 0
    endloop
  endfacet
  facet normal 0 -1 0
    outer loop
      vertex 184.6 17.5 5
      vertex 184.6 17.5 15
      vertex 179.6 17.5 5
    endloop
  endfacet
  facet normal 0 -1 0
    outer loop
      vertex 179.6 17.5 15
      vertex 184.6 17.5 15
      vertex 199.6 17.5 20
    endloop
  endfacet
  facet normal 0 -1 0
    outer loop
      vertex 154.6 17.5 5
      vertex 154.6 17.5 15
      vertex 149.6 17.5 5
    endloop
  endfacet
  facet normal 0 -1 0
    outer loop
      vertex 184.6 17.5 5
      vertex 179.6 17.5 5
      vertex 199.6 17.5 0
    endloop
  endfacet
  facet normal 0 -1 0
    outer loop
      vertex 184.6 17.5 15
      vertex 194.6 17.5 15
      vertex 199.6 17.5 20
    endloop
  endfacet
  facet normal 0 -1 0
    outer loop
      vertex 199.6 17.5 20
      vertex 194.6 17.5 15
      vertex 199.6 17.5 0
    endloop
  endfacet
  facet normal 0 -1 0
    outer loop
      vertex 199.6 17.5 0
      vertex 194.6 17.5 5
      vertex 184.6 17.5 5
    endloop
  endfacet
  facet normal 0 -1 0
    outer loop
      vertex 199.6 17.5 0
      vertex 194.6 17.5 15
      vertex 194.6 17.5 5
    endloop
  endfacet
  facet normal 0 -1 0
    outer loop
      vertex 149.6 17.5 15
      vertex 149.6 17.5 5
      vertex 154.6 17.5 15
    endloop
  endfacet
  facet normal 0 -1 0
    outer loop
      vertex 104.6 17.5 15
      vertex 104.6 17.5 5
      vertex 109.6 17.5 15
    endloop
  endfacet
  facet normal 0 -1 0
    outer loop
      vertex 74.6 17.5 15
      vertex 74.6 17.5 5
      vertex 79.6 17.5 15
    endloop
  endfacet
  facet normal 0 -1 0
    outer loop
      vertex 79.6 17.5 5
      vertex 79.6 17.5 15
      vertex 74.6 17.5 5
    endloop
  endfacet
  facet normal 0 0 -1
    outer loop
      vertex 59.6 17.5 0
      vertex 59.6 22.5 0
      vertex 199.6 17.5 0
    endloop
  endfacet
  facet normal 0 0 -1
    outer loop
      vertex 199.6 17.5 0
      vertex 59.6 22.5 0
      vertex 199.6 22.5 0
    endloop
  endfacet
  facet normal 1 0 0
    outer loop
      vertex 199.6 17.5 20
      vertex 199.6 17.5 0
      vertex 199.6 22.5 0
    endloop
  endfacet
  facet normal 1 0 0
    outer loop
      vertex 199.6 22.5 20
      vertex 199.6 17.5 20
      vertex 199.6 22.5 0
    endloop
  endfacet
  facet normal 0 0 -1
    outer loop
      vertex 64.6 17.5 15
      vertex 64.6 22.5 15
      vertex 74.6 17.5 15
    endloop
  endfacet
  facet normal 0 0 -1
    outer loop
      vertex 74.6 17.5 15
      vertex 64.6 22.5 15
      vertex 74.6 22.5 15
    endloop
  endfacet
  facet normal 1 0 0
    outer loop
      vertex 64.6 17.5 15
      vertex 64.6 17.5 5
      vertex 64.6 22.5 5
    endloop
  endfacet
  facet normal 1 0 0
    outer loop
      vertex 64.6 22.5 15
      vertex 64.6 17.5 15
      vertex 64.6 22.5 5
    endloop
  endfacet
  facet normal -1 0 0
    outer loop
      vertex 74.6 17.5 5
      vertex 74.6 17.5 15
      vertex 74.6 22.5 5
    endloop
  endfacet
  facet normal -1 0 0
    outer loop
      vertex 74.6 22.5 5
      vertex 74.6 17.5 15
      vertex 74.6 22.5 15
    endloop
  endfacet
  facet normal 0 0 1
    outer loop
      vertex 64.6 22.5 5
      vertex 64.6 17.5 5
      vertex 74.6 17.5 5
    endloop
  endfacet
  facet normal 0 0 1
    outer loop
      vertex 74.6 22.5 5
      vertex 64.6 22.5 5
      vertex 74.6 17.5 5
    endloop
  endfacet
  facet normal 0 0 -1
    outer loop
      vertex 79.6 17.5 15
      vertex 79.6 22.5 15
      vertex 89.6 17.5 15
    endloop
  endfacet
  facet normal 0 0 -1
    outer loop
      vertex 89.6 17.5 15
      vertex 79.6 22.5 15
      vertex 89.6 22.5 15
    endloop
  endfacet
  facet normal 1 0 0
    outer loop
      vertex 79.6 17.5 15
      vertex 79.6 17.5 5
      vertex 79.6 22.5 5
    endloop
  endfacet
  facet normal 1 0 0
    outer loop
      vertex 79.6 22.5 15
      vertex 79.6 17.5 15
      vertex 79.6 22.5 5
    endloop
  endfacet
  facet normal -1 0 0
    outer loop
      vertex 89.6 17.5 5
      vertex 89.6 17.5 15
      vertex 89.6 22.5 5
    endloop
  endfacet
  facet normal -1 0 0
    outer loop
      vertex 89.6 22.5 5
      vertex 89.6 17.5 15
      vertex 89.6 22.5 15
    endloop
  endfacet
  facet normal 0 0 1
    outer loop
      vertex 79.6 22.5 5
      vertex 79.6 17.5 5
      vertex 89.6 17.5 5
    endloop
  endfacet
  facet normal 0 0 1
    outer loop
      vertex 89.6 22.5 5
      vertex 79.6 22.5 5
      vertex 89.6 17.5 5
    endloop
  endfacet
  facet normal 0 0 -1
    outer loop
      vertex 94.6 17.5 15
      vertex 94.6 22.5 15
      vertex 104.6 17.5 15
    endloop
  endfacet
  facet normal 0 0 -1
    outer loop
      vertex 104.6 17.5 15
      vertex 94.6 22.5 15
      vertex 104.6 22.5 15
    endloop
  endfacet
  facet normal 1 0 0
    outer loop
      vertex 94.6 17.5 15
      vertex 94.6 17.5 5
      vertex 94.6 22.5 5
    endloop
  endfacet
  facet normal 1 0 0
    outer loop
      vertex 94.6 22.5 15
      vertex 94.6 17.5 15
      vertex 94.6 22.5 5
    endloop
  endfacet
  facet normal -1 0 0
    outer loop
      vertex 104.6 17.5 5
      vertex 104.6 17.5 15
      vertex 104.6 22.5 5
    endloop
  endfacet
  facet normal -1 0 0
    outer loop
      vertex 104.6 22.5 5
      vertex 104.6 17.5 15
      vertex 104.6 22.5 15
    endloop
  endfacet
  facet normal 0 0 1
    outer loop
      vertex 94.6 22.5 5
      vertex 94.6 17.5 5
      vertex 104.6 17.5 5
    endloop
  endfacet
  facet normal 0 0 1
    outer loop
      vertex 104.6 22.5 5
      vertex 94.6 22.5 5
      vertex 104.6 17.5 5
    endloop
  endfacet
  facet normal 0 0 -1
    outer loop
      vertex 109.6 17.5 15
      vertex 109.6 22.5 15
      vertex 119.6 17.5 15
    endloop
  endfacet
  facet normal 0 0 -1
    outer loop
      vertex 119.6 17.5 15
      vertex 109.6 22.5 15
      vertex 119.6 22.5 15
    endloop
  endfacet
  facet normal 1 0 0
    outer loop
      vertex 109.6 17.5 15
      vertex 109.6 17.5 5
      vertex 109.6 22.5 5
    endloop
  endfacet
  facet normal 1 0 0
    outer loop
      vertex 109.6 22.5 15
      vertex 109.6 17.5 15
      vertex 109.6 22.5 5
    endloop
  endfacet
  facet normal -1 0 0
    outer loop
      vertex 119.6 17.5 5
      vertex 119.6 17.5 15
      vertex 119.6 22.5 5
    endloop
  endfacet
  facet normal -1 0 0
    outer loop
      vertex 119.6 22.5 5
      vertex 119.6 17.5 15
      vertex 119.6 22.5 15
    endloop
  endfacet
  facet normal 0 0 1
    outer loop
      vertex 109.6 22.5 5
      vertex 109.6 17.5 5
      vertex 119.6 17.5 5
    endloop
  endfacet
  facet normal 0 0 1
    outer loop
      vertex 119.6 22.5 5
      vertex 109.6 22.5 5
      vertex 119.6 17.5 5
    endloop
  endfacet
  facet normal 0 0 -1
    outer loop
      vertex 124.6 17.5 15
      vertex 124.6 22.5 15
      vertex 134.6 17.5 15
    endloop
  endfacet
  facet normal 0 0 -1
    outer loop
      vertex 134.6 17.5 15
      vertex 124.6 22.5 15
      vertex 134.6 22.5 15
    endloop
  endfacet
  facet normal 1 0 0
    outer loop
      vertex 124.6 17.5 15
      vertex 124.6 17.5 5
      vertex 124.6 22.5 5
    endloop
  endfacet
  facet normal 1 0 0
    outer loop
      vertex 124.6 22.5 15
      vertex 124.6 17.5 15
      vertex 124.6 22.5 5
    endloop
  endfacet
  facet normal -1 0 0
    outer loop
      vertex 134.6 17.5 5
      vertex 134.6 17.5 15
      vertex 134.6 22.5 5
    endloop
  endfacet
  facet normal -1 0 0
    outer loop
      vertex 134.6 22.5 5
      vertex 134.6 17.5 15
      vertex 134.6 22.5 15
    endloop
  endfacet
  facet normal 0 0 1
    outer loop
      vertex 124.6 22.5 5
      vertex 124.6 17.5 5
      vertex 134.6 17.5 5
    endloop
  endfacet
  facet normal 0 0 1
    outer loop
      vertex 134.6 22.5 5
      vertex 124.6 22.5 5
      vertex 134.6 17.5 5
    endloop
  endfacet
  facet normal 0 0 -1
    outer loop
      vertex 139.6 17.5 15
      vertex 139.6 22.5 15
      vertex 149.6 17.5 15
    endloop
  endfacet
  facet normal 0 0 -1
    outer loop
      vertex 149.6 17.5 15
      vertex 139.6 22.5 15
      vertex 149.6 22.5 15
    endloop
  endfacet
  facet normal 1 0 0
    outer loop
      vertex 139.6 17.5 15
      vertex 139.6 17.5 5
      vertex 139.6 22.5 5
    endloop
  endfacet
  facet normal 1 0 0
    outer loop
      vertex 139.6 22.5 15
      vertex 139.6 17.5 15
      vertex 139.6 22.5 5
    endloop
  endfacet
  facet normal -1 0 0
    outer loop
      vertex 149.6 17.5 5
      vertex 149.6 17.5 15
      vertex 149.6 22.5 5
    endloop
  endfacet
  facet normal -1 0 0
    outer loop
      vertex 149.6 22.5 5
      vertex 149.6 17.5 15
      vertex 149.6 22.5 15
    endloop
  endfacet
  facet normal 0 0 1
    outer loop
      vertex 139.6 22.5 5
      vertex 139.6 17.5 5
      vertex 149.6 17.5 5
    endloop
  endfacet
  facet normal 0 0 1
    outer loop
      vertex 149.6 22.5 5
      vertex 139.6 22.5 5
      vertex 149.6 17.5 5
    endloop
  endfacet
  facet normal 0 0 -1
    outer loop
      vertex 154.6 17.5 15
      vertex 154.6 22.5 15
      vertex 164.6 17.5 15
    endloop
  endfacet
  facet normal 0 0 -1
    outer loop
      vertex 164.6 17.5 15
      vertex 154.6 22.5 15
      vertex 164.6 22.5 15
    endloop
  endfacet
  facet normal 1 0 0
    outer loop
      vertex 154.6 17.5 15
      vertex 154.6 17.5 5
      vertex 154.6 22.5 5
    endloop
  endfacet
  facet normal 1 0 0
    outer loop
      vertex 154.6 22.5 15
      vertex 154.6 17.5 15
      vertex 154.6 22.5 5
    endloop
  endfacet
  facet normal -1 0 0
    outer loop
      vertex 164.6 17.5 5
      vertex 164.6 17.5 15
      vertex 164.6 22.5 5
    endloop
  endfacet
  facet normal -1 0 0
    outer loop
      vertex 164.6 22.5 5
      vertex 164.6 17.5 15
      vertex 164.6 22.5 15
    endloop
  endfacet
  facet normal 0 0 1
    outer loop
      vertex 154.6 22.5 5
      vertex 154.6 17.5 5
      vertex 164.6 17.5 5
    endloop
  endfacet
  facet normal 0 0 1
    outer loop
      vertex 164.6 22.5 5
      vertex 154.6 22.5 5
      vertex 164.6 17.5 5
    endloop
  endfacet
  facet normal 0 0 -1
    outer loop
      vertex 169.6 17.5 15
      vertex 169.6 22.5 15
      vertex 179.6 17.5 15
    endloop
  endfacet
  facet normal 0 0 -1
    outer loop
      vertex 179.6 17.5 15
      vertex 169.6 22.5 15
      vertex 179.6 22.5 15
    endloop
  endfacet
  facet normal 1 0 0
    outer loop
      vertex 169.6 17.5 15
      vertex 169.6 17.5 5
      vertex 169.6 22.5 5
    endloop
  endfacet
  facet normal 1 0 0
    outer loop
      vertex 169.6 22.5 15
      vertex 169.6 17.5 15
      vertex 169.6 22.5 5
    endloop
  endfacet
  facet normal -1 0 0
    outer loop
      vertex 179.6 17.5 5
      vertex 179.6 17.5 15
      vertex 179.6 22.5 5
    endloop
  endfacet
  facet normal -1 0 0
    outer loop
      vertex 179.6 22.5 5
      vertex 179.6 17.5 15
      vertex 179.6 22.5 15
    endloop
  endfacet
  facet normal 0 0 1
    outer loop
      vertex 169.6 22.5 5
      vertex 169.6 17.5 5
      vertex 179.6 17.5 5
    endloop
  endfacet
  facet normal 0 0 1
    outer loop
      vertex 179.6 22.5 5
      vertex 169.6 22.5 5
      vertex 179.6 17.5 5
    endloop
  endfacet
  facet normal 0 0 -1
    outer loop
      vertex 184.6 17.5 15
      vertex 184.6 22.5 15
      vertex 194.6 17.5 15
    endloop
  endfacet
  facet normal 0 0 -1
    outer loop
      vertex 194.6 17.5 15
      vertex 184.6 22.5 15
      vertex 194.6 22.5 15
    endloop
  endfacet
  facet normal 1 0 0
    outer loop
      vertex 184.6 17.5 15
      vertex 184.6 17.5 5
      vertex 184.6 22.5 5
    endloop
  endfacet
  facet normal 1 0 0
    outer loop
      vertex 184.6 22.5 15
      vertex 184.6 17.5 15
      vertex 184.6 22.5 5
    endloop
  endfacet
  facet normal -1 0 0
    outer loop
      vertex 194.6 17.5 5
      vertex 194.6 17.5 15
      vertex 194.6 22.5 5
    endloop
  endfacet
  facet normal -1 0 0
    outer loop
      vertex 194.6 22.5 5
      vertex 194.6 17.5 15
      vertex 194.6 22.5 15
    endloop
  endfacet
  facet normal 0 0 1
    outer loop
      vertex 184.6 22.5 5
      vertex 184.6 17.5 5
      vertex 194.6 17.5 5
    endloop
  endfacet
  facet normal 0 0 1
    outer loop
      vertex 194.6 22.5 5
      vertex 184.6 22.5 5
      vertex 194.6 17.5 5
    endloop
  endfacet
endsolid OpenSCAD_Model
