solid OpenSCAD_Model
  facet normal -1 0 0
    outer loop
      vertex -20 100 0
      vertex -20 100 30
      vertex -20 105 0
    endloop
  endfacet
  facet normal -1 0 0
    outer loop
      vertex -20 105 0
      vertex -20 100 30
      vertex -20 105 30
    endloop
  endfacet
  facet normal 0 -1 0
    outer loop
      vertex -15 100 5
      vertex -20 100 0
      vertex 0 100 0
    endloop
  endfacet
  facet normal 0 -1 0
    outer loop
      vertex -15 100 5
      vertex -15 100 30
      vertex -20 100 30
    endloop
  endfacet
  facet normal 0 -1 0
    outer loop
      vertex -20 100 30
      vertex -20 100 0
      vertex -15 100 5
    endloop
  endfacet
  facet normal 0 -1 0
    outer loop
      vertex 0 100 5
      vertex -15 100 5
      vertex 0 100 0
    endloop
  endfacet
  facet normal 0 0 -1
    outer loop
      vertex -20 100 0
      vertex -20 105 0
      vertex 0 100 0
    endloop
  endfacet
  facet normal 0 0 -1
    outer loop
      vertex 0 100 0
      vertex -20 105 0
      vertex 25 105 0
    endloop
  endfacet
  facet normal 0 0 -1
    outer loop
      vertex 5 100 0
      vertex 25 105 0
      vertex 25 100 0
    endloop
  endfacet
  facet normal 0 0 -1
    outer loop
      vertex 0 100 0
      vertex 25 105 0
      vertex 5 100 0
    endloop
  endfacet
  facet normal 0 0 -1
    outer loop
      vertex 5 5 0
      vertex 0 0 0
      vertex 0 5 0
    endloop
  endfacet
  facet normal 0 0 -1
    outer loop
      vertex 5 100 0
      vertex 5 15 0
      vertex 0 100 0
    endloop
  endfacet
  facet normal 0 0 -1
    outer loop
      vertex 5 15 0
      vertex 10 15 0
      vertex 10 0 0
    endloop
  endfacet
  facet normal 0 0 -1
    outer loop
      vertex 5 5 0
      vertex 10 0 0
      vertex 0 0 0
    endloop
  endfacet
  facet normal 0 0 -1
    outer loop
      vertex 5 15 0
      vertex 10 0 0
      vertex 5 10 0
    endloop
  endfacet
  facet normal 0 0 -1
    outer loop
      vertex 0 10 0
      vertex 5 15 0
      vertex 5 10 0
    endloop
  endfacet
  facet normal 0 0 -1
    outer loop
      vertex 10 0 0
      vertex 5 5 0
      vertex 5 10 0
    endloop
  endfacet
  facet normal 0 0 -1
    outer loop
      vertex 0 100 0
      vertex 5 15 0
      vertex 0 10 0
    endloop
  endfacet
  facet normal 0 1 0
    outer loop
      vertex 20 105 5
      vertex 25 105 0
      vertex -15 105 5
    endloop
  endfacet
  facet normal 0 1 0
    outer loop
      vertex -20 105 0
      vertex -20 105 30
      vertex -15 105 5
    endloop
  endfacet
  facet normal 0 1 0
    outer loop
      vertex -20 105 0
      vertex -15 105 5
      vertex 25 105 0
    endloop
  endfacet
  facet normal 0 1 0
    outer loop
      vertex 25 105 0
      vertex 20 105 5
      vertex 20 105 30
    endloop
  endfacet
  facet normal 0 1 0
    outer loop
      vertex 25 105 0
      vertex 20 105 30
      vertex 25 105 30
    endloop
  endfacet
  facet normal 0 1 0
    outer loop
      vertex -15 105 5
      vertex -20 105 30
      vertex -15 105 30
    endloop
  endfacet
  facet normal 0 0 1
    outer loop
      vertex -20 105 30
      vertex -20 100 30
      vertex -15 100 30
    endloop
  endfacet
  facet normal 0 0 1
    outer loop
      vertex -15 105 30
      vertex -20 105 30
      vertex -15 100 30
    endloop
  endfacet
  facet normal 1 0 0
    outer loop
      vertex -15 100 30
      vertex -15 100 5
      vertex -15 105 5
    endloop
  endfacet
  facet normal 1 0 0
    outer loop
      vertex -15 105 30
      vertex -15 100 30
      vertex -15 105 5
    endloop
  endfacet
  facet normal 0 0 1
    outer loop
      vertex -15 105 5
      vertex -15 100 5
      vertex 0 100 5
    endloop
  endfacet
  facet normal 0 0 1
    outer loop
      vertex 5 100 5
      vertex -15 105 5
      vertex 0 100 5
    endloop
  endfacet
  facet normal 0 0 1
    outer loop
      vertex 0 15 5
      vertex 5 15 5
      vertex 0 100 5
    endloop
  endfacet
  facet normal 0 0 1
    outer loop
      vertex 5 15 5
      vertex 5 100 5
      vertex 0 100 5
    endloop
  endfacet
  facet normal 0 0 1
    outer loop
      vertex 5 100 5
      vertex 20 100 5
      vertex -15 105 5
    endloop
  endfacet
  facet normal 0 0 1
    outer loop
      vertex 20 100 5
      vertex 20 105 5
      vertex -15 105 5
    endloop
  endfacet
  facet normal -1 0 0
    outer loop
      vertex 0 100 5
      vertex 0 100 0
      vertex 0 15 5
    endloop
  endfacet
  facet normal -1 0 0
    outer loop
      vertex 0 10 0
      vertex 0 10 10
      vertex 0 15 5
    endloop
  endfacet
  facet normal -1 0 0
    outer loop
      vertex 0 10 0
      vertex 0 15 5
      vertex 0 100 0
    endloop
  endfacet
  facet normal -1 0 0
    outer loop
      vertex 0 15 5
      vertex 0 10 10
      vertex 0 15 10
    endloop
  endfacet
  facet normal 0 -1 0
    outer loop
      vertex 0 10 10
      vertex 0 10 0
      vertex 5 10 0
    endloop
  endfacet
  facet normal 0 -1 0
    outer loop
      vertex 10 10 5
      vertex 0 10 10
      vertex 5 10 5
    endloop
  endfacet
  facet normal 0 -1 0
    outer loop
      vertex 5 10 5
      vertex 0 10 10
      vertex 5 10 0
    endloop
  endfacet
  facet normal 0 -1 0
    outer loop
      vertex 10 10 10
      vertex 0 10 10
      vertex 10 10 5
    endloop
  endfacet
  facet normal -1 0 0
    outer loop
      vertex 5 5 0
      vertex 5 5 5
      vertex 5 10 0
    endloop
  endfacet
  facet normal -1 0 0
    outer loop
      vertex 5 10 0
      vertex 5 5 5
      vertex 5 10 5
    endloop
  endfacet
  facet normal 0 1 0
    outer loop
      vertex 0 5 0
      vertex 0 5 10
      vertex 5 5 0
    endloop
  endfacet
  facet normal 0 1 0
    outer loop
      vertex 5 5 5
      vertex 0 5 10
      vertex 10 5 10
    endloop
  endfacet
  facet normal 0 1 0
    outer loop
      vertex 5 5 0
      vertex 0 5 10
      vertex 5 5 5
    endloop
  endfacet
  facet normal 0 1 0
    outer loop
      vertex 5 5 5
      vertex 10 5 10
      vertex 10 5 5
    endloop
  endfacet
  facet normal -1 0 0
    outer loop
      vertex 0 0 0
      vertex 0 0 10
      vertex 0 5 0
    endloop
  endfacet
  facet normal -1 0 0
    outer loop
      vertex 0 5 0
      vertex 0 0 10
      vertex 0 5 10
    endloop
  endfacet
  facet normal 0 -1 0
    outer loop
      vertex 0 0 10
      vertex 0 0 0
      vertex 10 0 0
    endloop
  endfacet
  facet normal 0 -1 0
    outer loop
      vertex 10 0 10
      vertex 0 0 10
      vertex 10 0 0
    endloop
  endfacet
  facet normal 1 0 0
    outer loop
      vertex 10 5 5
      vertex 10 0 0
      vertex 10 15 0
    endloop
  endfacet
  facet normal 1 0 0
    outer loop
      vertex 10 5 5
      vertex 10 5 10
      vertex 10 0 10
    endloop
  endfacet
  facet normal 1 0 0
    outer loop
      vertex 10 15 10
      vertex 10 10 10
      vertex 10 15 0
    endloop
  endfacet
  facet normal 1 0 0
    outer loop
      vertex 10 10 10
      vertex 10 10 5
      vertex 10 15 0
    endloop
  endfacet
  facet normal 1 0 0
    outer loop
      vertex 10 0 10
      vertex 10 0 0
      vertex 10 5 5
    endloop
  endfacet
  facet normal 1 0 0
    outer loop
      vertex 10 10 5
      vertex 10 5 5
      vertex 10 15 0
    endloop
  endfacet
  facet normal 0 1 0
    outer loop
      vertex 0 15 5
      vertex 0 15 10
      vertex 5 15 5
    endloop
  endfacet
  facet normal 0 1 0
    outer loop
      vertex 5 15 5
      vertex 0 15 10
      vertex 10 15 10
    endloop
  endfacet
  facet normal 0 1 0
    outer loop
      vertex 5 15 5
      vertex 10 15 10
      vertex 10 15 0
    endloop
  endfacet
  facet normal 0 1 0
    outer loop
      vertex 5 15 5
      vertex 10 15 0
      vertex 5 15 0
    endloop
  endfacet
  facet normal 1 0 0
    outer loop
      vertex 5 15 5
      vertex 5 15 0
      vertex 5 100 0
    endloop
  endfacet
  facet normal 1 0 0
    outer loop
      vertex 5 100 5
      vertex 5 15 5
      vertex 5 100 0
    endloop
  endfacet
  facet normal 0 -1 0
    outer loop
      vertex 5 100 5
      vertex 5 100 0
      vertex 25 100 0
    endloop
  endfacet
  facet normal 0 -1 0
    outer loop
      vertex 20 100 5
      vertex 5 100 5
      vertex 25 100 0
    endloop
  endfacet
  facet normal 0 -1 0
    outer loop
      vertex 25 100 30
      vertex 20 100 5
      vertex 25 100 0
    endloop
  endfacet
  facet normal 0 -1 0
    outer loop
      vertex 20 100 30
      vertex 20 100 5
      vertex 25 100 30
    endloop
  endfacet
  facet normal 1 0 0
    outer loop
      vertex 25 100 30
      vertex 25 100 0
      vertex 25 105 0
    endloop
  endfacet
  facet normal 1 0 0
    outer loop
      vertex 25 105 30
      vertex 25 100 30
      vertex 25 105 0
    endloop
  endfacet
  facet normal 0 0 1
    outer loop
      vertex 20 105 30
      vertex 20 100 30
      vertex 25 100 30
    endloop
  endfacet
  facet normal 0 0 1
    outer loop
      vertex 25 105 30
      vertex 20 105 30
      vertex 25 100 30
    endloop
  endfacet
  facet normal -1 0 0
    outer loop
      vertex 20 100 5
      vertex 20 100 30
      vertex 20 105 5
    endloop
  endfacet
  facet normal -1 0 0
    outer loop
      vertex 20 105 5
      vertex 20 100 30
      vertex 20 105 30
    endloop
  endfacet
  facet normal 0 0 1
    outer loop
      vertex 0 15 10
      vertex 0 10 10
      vertex 10 10 10
    endloop
  endfacet
  facet normal 0 0 1
    outer loop
      vertex 10 15 10
      vertex 0 15 10
      vertex 10 10 10
    endloop
  endfacet
  facet normal 0 0 1
    outer loop
      vertex 5 10 5
      vertex 5 5 5
      vertex 10 5 5
    endloop
  endfacet
  facet normal 0 0 1
    outer loop
      vertex 10 10 5
      vertex 5 10 5
      vertex 10 5 5
    endloop
  endfacet
  facet normal 0 0 1
    outer loop
      vertex 0 5 10
      vertex 0 0 10
      vertex 10 0 10
    endloop
  endfacet
  facet normal 0 0 1
    outer loop
      vertex 10 5 10
      vertex 0 5 10
      vertex 10 0 10
    endloop
  endfacet
endsolid OpenSCAD_Model
