solid OpenSCAD_Model
  facet normal -1 0 0
    outer loop
      vertex -20 110 0
      vertex -20 110 30
      vertex -20 115 0
    endloop
  endfacet
  facet normal -1 0 0
    outer loop
      vertex -20 115 0
      vertex -20 110 30
      vertex -20 115 30
    endloop
  endfacet
  facet normal 0 -1 0
    outer loop
      vertex -15 110 5
      vertex -20 110 0
      vertex 0 110 0
    endloop
  endfacet
  facet normal 0 -1 0
    outer loop
      vertex -15 110 5
      vertex -15 110 30
      vertex -20 110 30
    endloop
  endfacet
  facet normal 0 -1 0
    outer loop
      vertex -20 110 30
      vertex -20 110 0
      vertex -15 110 5
    endloop
  endfacet
  facet normal 0 -1 0
    outer loop
      vertex 0 110 5
      vertex -15 110 5
      vertex 0 110 0
    endloop
  endfacet
  facet normal 0 0 -1
    outer loop
      vertex -20 110 0
      vertex -20 115 0
      vertex 0 110 0
    endloop
  endfacet
  facet normal 0 0 -1
    outer loop
      vertex 0 110 0
      vertex -20 115 0
      vertex 25 115 0
    endloop
  endfacet
  facet normal 0 0 -1
    outer loop
      vertex 5 110 0
      vertex 25 115 0
      vertex 25 110 0
    endloop
  endfacet
  facet normal 0 0 -1
    outer loop
      vertex 0 110 0
      vertex 25 115 0
      vertex 5 110 0
    endloop
  endfacet
  facet normal 0 0 -1
    outer loop
      vertex 5 5 0
      vertex 0 0 0
      vertex 0 5 0
    endloop
  endfacet
  facet normal 0 0 -1
    outer loop
      vertex 5 110 0
      vertex 5 15 0
      vertex 0 110 0
    endloop
  endfacet
  facet normal 0 0 -1
    outer loop
      vertex 5 15 0
      vertex 10 15 0
      vertex 10 0 0
    endloop
  endfacet
  facet normal 0 0 -1
    outer loop
      vertex 5 5 0
      vertex 10 0 0
      vertex 0 0 0
    endloop
  endfacet
  facet normal 0 0 -1
    outer loop
      vertex 5 15 0
      vertex 10 0 0
      vertex 5 10 0
    endloop
  endfacet
  facet normal 0 0 -1
    outer loop
      vertex 0 10 0
      vertex 5 15 0
      vertex 5 10 0
    endloop
  endfacet
  facet normal 0 0 -1
    outer loop
      vertex 10 0 0
      vertex 5 5 0
      vertex 5 10 0
    endloop
  endfacet
  facet normal 0 0 -1
    outer loop
      vertex 0 110 0
      vertex 5 15 0
      vertex 0 10 0
    endloop
  endfacet
  facet normal 0 1 0
    outer loop
      vertex 20 115 5
      vertex 25 115 0
      vertex -15 115 5
    endloop
  endfacet
  facet normal 0 1 0
    outer loop
      vertex -20 115 0
      vertex -20 115 30
      vertex -15 115 5
    endloop
  endfacet
  facet normal 0 1 0
    outer loop
      vertex -20 115 0
      vertex -15 115 5
      vertex 25 115 0
    endloop
  endfacet
  facet normal 0 1 0
    outer loop
      vertex 25 115 0
      vertex 20 115 5
      vertex 20 115 30
    endloop
  endfacet
  facet normal 0 1 0
    outer loop
      vertex 25 115 0
      vertex 20 115 30
      vertex 25 115 30
    endloop
  endfacet
  facet normal 0 1 0
    outer loop
      vertex -15 115 5
      vertex -20 115 30
      vertex -15 115 30
    endloop
  endfacet
  facet normal 0 0 1
    outer loop
      vertex -20 115 30
      vertex -20 110 30
      vertex -15 110 30
    endloop
  endfacet
  facet normal 0 0 1
    outer loop
      vertex -15 115 30
      vertex -20 115 30
      vertex -15 110 30
    endloop
  endfacet
  facet normal 1 0 0
    outer loop
      vertex -15 110 30
      vertex -15 110 5
      vertex -15 115 5
    endloop
  endfacet
  facet normal 1 0 0
    outer loop
      vertex -15 115 30
      vertex -15 110 30
      vertex -15 115 5
    endloop
  endfacet
  facet normal 0 0 1
    outer loop
      vertex -15 115 5
      vertex -15 110 5
      vertex 0 110 5
    endloop
  endfacet
  facet normal 0 0 1
    outer loop
      vertex 5 110 5
      vertex -15 115 5
      vertex 0 110 5
    endloop
  endfacet
  facet normal 0 0 1
    outer loop
      vertex 0 15 5
      vertex 5 15 5
      vertex 0 110 5
    endloop
  endfacet
  facet normal 0 0 1
    outer loop
      vertex 5 15 5
      vertex 5 110 5
      vertex 0 110 5
    endloop
  endfacet
  facet normal 0 0 1
    outer loop
      vertex 5 110 5
      vertex 20 110 5
      vertex -15 115 5
    endloop
  endfacet
  facet normal 0 0 1
    outer loop
      vertex 20 110 5
      vertex 20 115 5
      vertex -15 115 5
    endloop
  endfacet
  facet normal -1 0 0
    outer loop
      vertex 0 110 5
      vertex 0 110 0
      vertex 0 15 5
    endloop
  endfacet
  facet normal -1 0 0
    outer loop
      vertex 0 10 0
      vertex 0 10 10
      vertex 0 15 5
    endloop
  endfacet
  facet normal -1 0 0
    outer loop
      vertex 0 10 0
      vertex 0 15 5
      vertex 0 110 0
    endloop
  endfacet
  facet normal -1 0 0
    outer loop
      vertex 0 15 5
      vertex 0 10 10
      vertex 0 15 10
    endloop
  endfacet
  facet normal 0 -1 0
    outer loop
      vertex 0 10 10
      vertex 0 10 0
      vertex 5 10 0
    endloop
  endfacet
  facet normal 0 -1 0
    outer loop
      vertex 10 10 5
      vertex 0 10 10
      vertex 5 10 5
    endloop
  endfacet
  facet normal 0 -1 0
    outer loop
      vertex 5 10 5
      vertex 0 10 10
      vertex 5 10 0
    endloop
  endfacet
  facet normal 0 -1 0
    outer loop
      vertex 10 10 10
      vertex 0 10 10
      vertex 10 10 5
    endloop
  endfacet
  facet normal -1 0 0
    outer loop
      vertex 5 5 0
      vertex 5 5 5
      vertex 5 10 0
    endloop
  endfacet
  facet normal -1 0 0
    outer loop
      vertex 5 10 0
      vertex 5 5 5
      vertex 5 10 5
    endloop
  endfacet
  facet normal 0 1 0
    outer loop
      vertex 0 5 0
      vertex 0 5 10
      vertex 5 5 0
    endloop
  endfacet
  facet normal 0 1 0
    outer loop
      vertex 5 5 5
      vertex 0 5 10
      vertex 10 5 10
    endloop
  endfacet
  facet normal 0 1 0
    outer loop
      vertex 5 5 0
      vertex 0 5 10
      vertex 5 5 5
    endloop
  endfacet
  facet normal 0 1 0
    outer loop
      vertex 5 5 5
      vertex 10 5 10
      vertex 10 5 5
    endloop
  endfacet
  facet normal -1 0 0
    outer loop
      vertex 0 0 0
      vertex 0 0 10
      vertex 0 5 0
    endloop
  endfacet
  facet normal -1 0 0
    outer loop
      vertex 0 5 0
      vertex 0 0 10
      vertex 0 5 10
    endloop
  endfacet
  facet normal 0 -1 0
    outer loop
      vertex 0 0 10
      vertex 0 0 0
      vertex 10 0 0
    endloop
  endfacet
  facet normal 0 -1 0
    outer loop
      vertex 10 0 10
      vertex 0 0 10
      vertex 10 0 0
    endloop
  endfacet
  facet normal 1 0 0
    outer loop
      vertex 10 5 5
      vertex 10 0 0
      vertex 10 15 0
    endloop
  endfacet
  facet normal 1 0 0
    outer loop
      vertex 10 5 5
      vertex 10 5 10
      vertex 10 0 10
    endloop
  endfacet
  facet normal 1 0 0
    outer loop
      vertex 10 15 10
      vertex 10 10 10
      vertex 10 15 0
    endloop
  endfacet
  facet normal 1 0 0
    outer loop
      vertex 10 10 10
      vertex 10 10 5
      vertex 10 15 0
    endloop
  endfacet
  facet normal 1 0 0
    outer loop
      vertex 10 0 10
      vertex 10 0 0
      vertex 10 5 5
    endloop
  endfacet
  facet normal 1 0 0
    outer loop
      vertex 10 10 5
      vertex 10 5 5
      vertex 10 15 0
    endloop
  endfacet
  facet normal 0 1 0
    outer loop
      vertex 0 15 5
      vertex 0 15 10
      vertex 5 15 5
    endloop
  endfacet
  facet normal 0 1 0
    outer loop
      vertex 5 15 5
      vertex 0 15 10
      vertex 10 15 10
    endloop
  endfacet
  facet normal 0 1 0
    outer loop
      vertex 5 15 5
      vertex 10 15 10
      vertex 10 15 0
    endloop
  endfacet
  facet normal 0 1 0
    outer loop
      vertex 5 15 5
      vertex 10 15 0
      vertex 5 15 0
    endloop
  endfacet
  facet normal 1 0 0
    outer loop
      vertex 5 15 5
      vertex 5 15 0
      vertex 5 110 0
    endloop
  endfacet
  facet normal 1 0 0
    outer loop
      vertex 5 110 5
      vertex 5 15 5
      vertex 5 110 0
    endloop
  endfacet
  facet normal 0 -1 0
    outer loop
      vertex 5 110 5
      vertex 5 110 0
      vertex 25 110 0
    endloop
  endfacet
  facet normal 0 -1 0
    outer loop
      vertex 20 110 5
      vertex 5 110 5
      vertex 25 110 0
    endloop
  endfacet
  facet normal 0 -1 0
    outer loop
      vertex 25 110 30
      vertex 20 110 5
      vertex 25 110 0
    endloop
  endfacet
  facet normal 0 -1 0
    outer loop
      vertex 20 110 30
      vertex 20 110 5
      vertex 25 110 30
    endloop
  endfacet
  facet normal 1 0 0
    outer loop
      vertex 25 110 30
      vertex 25 110 0
      vertex 25 115 0
    endloop
  endfacet
  facet normal 1 0 0
    outer loop
      vertex 25 115 30
      vertex 25 110 30
      vertex 25 115 0
    endloop
  endfacet
  facet normal 0 0 1
    outer loop
      vertex 20 115 30
      vertex 20 110 30
      vertex 25 110 30
    endloop
  endfacet
  facet normal 0 0 1
    outer loop
      vertex 25 115 30
      vertex 20 115 30
      vertex 25 110 30
    endloop
  endfacet
  facet normal -1 0 0
    outer loop
      vertex 20 110 5
      vertex 20 110 30
      vertex 20 115 5
    endloop
  endfacet
  facet normal -1 0 0
    outer loop
      vertex 20 115 5
      vertex 20 110 30
      vertex 20 115 30
    endloop
  endfacet
  facet normal 0 0 1
    outer loop
      vertex 0 15 10
      vertex 0 10 10
      vertex 10 10 10
    endloop
  endfacet
  facet normal 0 0 1
    outer loop
      vertex 10 15 10
      vertex 0 15 10
      vertex 10 10 10
    endloop
  endfacet
  facet normal 0 0 1
    outer loop
      vertex 5 10 5
      vertex 5 5 5
      vertex 10 5 5
    endloop
  endfacet
  facet normal 0 0 1
    outer loop
      vertex 10 10 5
      vertex 5 10 5
      vertex 10 5 5
    endloop
  endfacet
  facet normal 0 0 1
    outer loop
      vertex 0 5 10
      vertex 0 0 10
      vertex 10 0 10
    endloop
  endfacet
  facet normal 0 0 1
    outer loop
      vertex 10 5 10
      vertex 0 5 10
      vertex 10 0 10
    endloop
  endfacet
endsolid OpenSCAD_Model
